<?xml version="1.0" encoding="utf-8"?>
<!-- Generator: Adobe Illustrator 24.0.3, SVG Export Plug-In . SVG Version: 6.00 Build 0)  -->
<svg version="1.1" id="Layer_1" xmlns="http://www.w3.org/2000/svg" xmlns:xlink="http://www.w3.org/1999/xlink" x="0px" y="0px"
	 viewBox="0 0 1010 924" style="enable-background:new 0 0 1010 924;" xml:space="preserve">
<style type="text/css">
	.st0{fill-rule:evenodd;clip-rule:evenodd;fill:#49574E;}
	.st1{fill:none;stroke:#1C2628;stroke-width:2.13;stroke-linecap:round;stroke-linejoin:round;}
	
		.st2{fill-rule:evenodd;clip-rule:evenodd;fill:#F3A140;stroke:#1C2628;stroke-width:2.13;stroke-linecap:round;stroke-linejoin:round;}
	
		.st3{fill-rule:evenodd;clip-rule:evenodd;fill:#1C2628;stroke:#1C2628;stroke-width:2.13;stroke-linecap:round;stroke-linejoin:round;}
	
		.st4{fill-rule:evenodd;clip-rule:evenodd;fill:#F45B49;stroke:#1C2628;stroke-width:2.13;stroke-linecap:round;stroke-linejoin:round;}
	
		.st5{fill-rule:evenodd;clip-rule:evenodd;fill:#FAF6EB;stroke:#1C2628;stroke-width:2.13;stroke-linecap:round;stroke-linejoin:round;}
	.st6{fill-rule:evenodd;clip-rule:evenodd;fill:#FB564C;}
	.st7{fill:none;stroke:#FAF6EB;stroke-width:2.13;stroke-linecap:round;stroke-linejoin:round;}
	.st8{fill-rule:evenodd;clip-rule:evenodd;fill:#F3A13B;}
	.st9{fill-rule:evenodd;clip-rule:evenodd;fill:#FAF6EB;}
	.st10{fill:#FAF6EB;stroke:#1C2628;stroke-width:2.13;stroke-linecap:round;stroke-linejoin:round;}
	.st11{fill-rule:evenodd;clip-rule:evenodd;fill:#F45B49;}
	.st12{clip-path:url(#SVGID_2_);fill:none;stroke:#1C2628;stroke-width:2.13;stroke-linecap:round;stroke-linejoin:round;}
	.st13{fill:none;stroke:#FFFFFF;stroke-width:2.13;stroke-linecap:round;stroke-linejoin:round;}
	.st14{fill:#1C2628;stroke:#1C2628;stroke-width:2.13;stroke-linecap:round;stroke-linejoin:round;}
</style>
<g>
	<g>
		<path class="st0" d="M879.7,712c0-15.5,12.8-28,28.5-28c4.6,0,12.9,3,12.9,3l-0.1,10.5l11.3-0.6c0,0,4.5,9.5,4.5,15
			c0,15.5-12.8,28-28.5,28C892.4,740,879.7,727.4,879.7,712z"/>
		<path class="st0" d="M811.8,757.1c15.3-1.1,28.6,10.9,29.7,26.7c0.3,4.7-2.1,13.2-2.1,13.2l-10.4,0.6l1.4,11.3
			c0,0-9.1,5.2-14.6,5.5c-15.3,1.1-28.6-10.9-29.7-26.7C784.9,771.9,796.5,758.2,811.8,757.1z"/>
		<path class="st1" d="M856.4,647.6l-2.1,208.8"/>
		<path class="st1" d="M835.9,671.5l19,29"/>
		<path class="st1" d="M855.7,783.2l46.2-62"/>
		<path class="st1" d="M814,780.6l40.2,56.6"/>
	</g>
	<path class="st2" d="M256.7,189.6h522.8v665.9H256.7V189.6z"/>
	<path class="st1" d="M256.8,493.3l520.6,0.2"/>
	<path class="st1" d="M256.8,671l520.6,0.2"/>
	<path class="st3" d="M248.5,833.2h549.6v27.4H248.5V833.2z"/>
	<path class="st1" d="M519.8,192.6l7.7,662.6"/>
	<path class="st4" d="M449.1,646.1c-15.1,25.1-64,124.6-64,124.6s-28.3,17.2-63.5,31.5c-22.5,9.1-56.8,14.3-59.5,22.3
		c-7.3,21.8,72.8,4.1,102.2,1.8c29.9-2.4,78.5,32,106.1,13.7c18-11.9-0.7-40.7,0.9-56.9s11.6-126.4,21.8-139.8"/>
	<path class="st3" d="M603.8,687.4c0,0-129.5-223.8-209.5-156.6c-43.6,36.6-81.8,238.9-81.8,238.9l78.5,17.2l52.4-85.4
		c0,0,23.3,105.6,66.5,125.8c24.3,11.4,122.6,17.8,170.2,6.8c37-8.5,36.3-44.4,36.3-44.4L603.8,687.4z"/>
	<path class="st4" d="M409.3,654.4c-15.1,25.1-64,124.6-64,124.6s-28.3,17.2-63.5,31.5c-22.5,9.1-56.8,14.3-59.5,22.3
		c-7.4,21.8,57.6,12.5,87,10.2c29.9-2.4,82.7,11.1,99.7-2.3c17-13.4,4.9-31.2,16.2-53.9c14.4-28.9,39.1-64.7,49.3-78.1"/>
	<path class="st3" d="M526.8,460.7c-39.6-39.6-34-97.6-27.3-103.2c70.7-58.8,111,10.5,129.6,9.4c45.6,5.6,78.7,25.8,82.5,57.7
		c3.3,28,0,97.7-54.3,90.3c-33.5-11.5-126.8,9.9-155.5-13.6c-15.5-12.7-5.6-104.9-16.1-121.8"/>
	<path class="st5" d="M779.7,785.8c0,0-0.8,0.5-2.4,1.3c-10,4.8-49.9,19.7-92.5-22.2c-5.3-5.2-10.6-11.3-15.9-18.3
		c-54.7-73-91.3-85.3-91.3-85.3l-71.7-132l-3.3-6l-46.8-54.7l58.1-38.9l139.6,28.7c0,0,32.3-27.8,67.8,17
		c8.1,10.3,16.4,24.3,24.6,43.4c17,39.9,18.5,129.2,20,194.2C767,754.9,779.7,785.8,779.7,785.8z"/>
	<path class="st4" d="M597.3,420.1l19.7,37.5l33.9,17.4c0,0-13.2,31.1-40.7,41.1c-27.5,10-41.1,1.7-52.2-2.2
		c-11.2-3.9-22.1-21.3-22.1-21.3l12.5-20.2l-12.2-16L597.3,420.1z"/>
	<path class="st4" d="M589.9,392.7c-3.7-11.1,2.7-14.5-5.4-21.5c-14.4-12.6-34.1-17.5-52.4-11.2c-20.6,7-43.4,12.4-45.4,34.2
		c-0.8,8.4,9.6,30.9,12.5,39.6c10.4,31,42,48.3,70.6,38.6c18.3-6.2,30-16.1,34-34.9C605.9,427.1,593.6,403.9,589.9,392.7z"/>
	<path class="st4" d="M522.2,428.3c2.1,10.9-1.4,22.7,4.9,23.9c8.3,1.5,14-16.2,13.6-18.5"/>
	<path class="st1" d="M563.9,429.5c1.5,9.5-3.7,15.1-12,17.1"/>
	<path class="st6" d="M620.1,465.8L598.3,425c0,0-35.1,14-37,27s23.4,33.9,23.4,33.9l20.2-9.7"/>
	<path class="st3" d="M583.9,378.8c-34.6,31.1-78.8,9.9-78.8,9.9s6.1,34.5-8.7,49.2c-14.8,14.6-32.5-7.4-25.8-41.6
		c6.8-34.1,50.7-62.3,75.4-59.8C566.7,338.7,611.3,354.1,583.9,378.8z"/>
	<path class="st4" d="M575.5,386.1c-1.7-6.4,7.3-10.3,12.1-8.7c10.1,3.2,19.5,19.3,2.2,26.4"/>
	<path class="st7" d="M664.5,422.9c18.5,12.9,24.5,12.2,42.4,19.2"/>
	<path class="st8" d="M196.2,654.9c-13.2-0.7-10.5-32,1.5-34.4c14.3-2.9,34,19.3,21.2,32.1C215.1,656.5,201.4,655.2,196.2,654.9z"/>
	<path class="st3" d="M537.6,472.8l20.6,1l18.9-6.9c0,0-7.2,20-17.3,28.4c-10,8.4-34.1,8.3-34.1,8.3L537.6,472.8z"/>
	<path class="st1" d="M585.9,388.4c0.1,0.5,0.2,0.9,0.3,1.4"/>
	<path class="st3" d="M722.2,839.5c-47.6,11-148.4,11.5-172.7,0.2C506.3,819.5,475,715.1,475,715.1l-42,77.2l-90.6-28.9l-1.9-0.6
		c0,0,54.4-209.7,96-248.6c81.3-55.8,209.4,178.7,209.4,178.7l65.8,59.8l46.8,42.5C758.5,795.2,759.2,831,722.2,839.5z"/>
	<path class="st9" d="M645.8,692.9c0,0-128.1-234.4-209.4-178.7c-41.6,38.8-93.6,239.5-93.6,239.5c1,0,3-0.5,5.5-1.3
		c25.9-8.7,44.8-33.3,43.4-60.7c-2.9-53.9,49.8-199.9,110.5-128.9c20,23.4,51.4,25.6,61.6,43.3c8,14.2-1,32.4,6,47.6
		c7,17.2,28.2,17.2,43.3,25.3c24.1,12.2,34.2,84.4,98.6,73.7L645.8,692.9z"/>
	<path class="st1" d="M535.8,416.3c9-4,14.4-5.4,15.8-16.8"/>
	<path class="st1" d="M502.2,440.8c4.9-2.2,8.2-3.6,10.2-8.8"/>
	<path class="st1" d="M478.7,386.2c-9.5,9.6-17.3,38.3-9.7,51.1c2.9,4.8,10.3,5.2,12.3,9.3c8.5,17.1-12.3,24.2,17.3,36.9"/>
	<path class="st1" d="M567.3,342.6c11.9-0.7,26.7-1,38.3,3.4c13.4,5,24.6,14.1,37.9,18.7c28.8,9.9,63.3,3.9,63.3,55.5"/>
	<path class="st4" d="M648.8,561.2c-1.4-9.9-4.5-39.7-8.7-77.4c-2.3-21.4,1-50.4,1-50.4s-4.1-4.7-6.9-1.1
		c-2.8,3.6-3.9,15.4-4.2,15.4c-4.8-1-32.7-59.5-40-55.8c-5.3,2.6,16.5,36.2,16.5,36.2s-23.8-38.2-28-34.8
		c-4.8,3.9,19.6,39.1,19.6,39.1s-22.5-36.9-28.4-34.1c-5.8,2.8,20.2,39.9,19.5,40.2c-2.1,0.9-23.5-33-27.8-30.9
		c-4.1,2,17,34.2,23.3,51.4c8.9,24-4,180.1,32.5,209.6c20.2,16.3,50.1,15.1,69.2-7.7c19-22.8,41.7-83.3,41.7-83.3l-53.2-57.3
		C674.9,520.2,649.8,568.2,648.8,561.2z"/>
	<path class="st5" d="M695.3,458.7c0,0-63.1-33.3-53.5,37.9c8.7,56,4.2,70.3,4.2,70.3s2.7-3.7,28,11.6s44.2,43,44.2,43
		s24.1-66.8,13.8-93.6"/>
	<path class="st4" d="M455.8,468.3c0,0-43.2,40.2-6,60.2s135-4.5,135-4.5l22.5-1c0,0,1.3,5.9,6.7,25.9c5.3,19.9,7.9,43.8,14.6,53.9
		c6.8,10.1,8,0.2,8,0.2l-3.9-37.1c0,0,7.4,43,11.1,41c3.8-2,0.8-42.6,0.8-42.6s12.2,40.7,14.6,40.2c2.4-0.5-0.8-42.9-0.8-42.9
		s9.1,53.6,10.7,41.9c1.6-11.7,1.2-42.2-3.3-77c-2.2-16.9-18.7-47-51.7-51.8C594.6,471.9,455.8,468.3,455.8,468.3z"/>
	<path class="st3" d="M488.9,439.6c-8.7,51.3,26.9,40.1,26.9,40.1l22.7-6.8c0,0-25.7-12.5-27.5-15c-2-2.8-15.3-23.5-16.8-26.7"/>
	<path class="st10" d="M552.5,539.3c-3.3,6.5,11.7,49.4,40,49.4"/>
	<path class="st7" d="M457.2,747.9c1.9-2.3,17.9-32.8,17.9-32.8s7.3,27.3,13.1,40.2c14.2,31.9,33.2,63.6,60.2,78.3"/>
	<path class="st3" d="M733.9,562.8l-9.1,80.6l-36.1,16.2l24.4-46l5.4,8L733.9,562.8z"/>
	<path class="st5" d="M640.7,678.9c5.2,14,22.6,28.7,28.3,40.3c26.5,53.6,26.2,99.5,98,70.8"/>
	<path class="st1" d="M674.7,704.2c6.6,12.8,12.7,26.1,18.4,39.4c8.4,19.8,18.7,52.5,48.5,42"/>
	<path class="st4" d="M430.3,791.5c-10.3,1.9-36.2-4.7-57.1-3.8c-7.2,0.3-13.4-3.1-13.4-3.1s-13.1-8.8-17.2-5.9
		c-3.6,2.5-3.2,11.8-3.2,11.8s-7.2,3.9-7.7,8.7c-0.1,1.2,0,6.6,0,6.6s0.8,6.8,3.2,12.7c2.4,5.9,39.7,11.5,59.4,17.3
		c5.5,1.6,36.4,11.7,51.7,8.9"/>
	<path class="st1" d="M455.5,821.2c-8.5-3.5-16.7-3.3-25.5-5.4c-8.9-2.1-17.9-5.7-26.4-9.1"/>
	<path class="st1" d="M342.2,802c-2.5,5.3-4,8.8-5.7,14.4"/>
	<path class="st1" d="M256.8,315.6l520.6,0.2"/>
	<path class="st5" d="M566.8,380.2c0-10.2,8.5-18.5,19-18.5s19,8.3,19,18.5s-8.5,18.5-19,18.5C575.3,398.6,566.8,390.4,566.8,380.2z
		"/>
	<path class="st5" d="M468.7,402c0,0-11.5-38,28-59.8c46.6-25.8,87.5,28.2,87.5,28.2l-7,11.1c0,0-52.1-39.9-94.9-10
		C461.9,385.7,468.7,402,468.7,402z"/>
	<path class="st5" d="M575.6,378.9c0-5.8,4.6-10.6,10.2-10.6c5.6,0,10.2,4.7,10.2,10.6c0,5.8-4.6,10.6-10.2,10.6
		C580.2,389.5,575.6,384.8,575.6,378.9z"/>
	<g>
		<path class="st0" d="M267.4,401.9c-17.3-21.1-41.1-32.8-58.4-55.4c-40.7-53.3-22.8-117.4-1.1-174.2
			C248.4,250.1,267.4,327.9,267.4,401.9z"/>
		<path class="st0" d="M268.4,398.8c-23.7-104.4,17-154.4,51.5-244.7C318,237.7,357.1,340.7,268.4,398.8z"/>
		<path class="st0" d="M266.7,413.1c-0.3-58.7,68.8-104.7,84.9-158.6C374.1,308.7,337.6,417.1,266.7,413.1z"/>
		<g>
			<g>
				<path id="XMLID_1_" class="st11" d="M254.6,376.8h34.6c26.7,0,48.3,21.8,48.3,48.6l0,0c0,26.8-21.6,48.6-48.3,48.6h-34.6
					c-26.7,0-48.3-21.8-48.3-48.6l0,0C206.3,398.5,227.9,376.8,254.6,376.8z"/>
			</g>
			<g>
				<defs>
					<path id="SVGID_1_" d="M254.6,376.8h34.6c26.7,0,48.3,21.8,48.3,48.6l0,0c0,26.8-21.6,48.6-48.3,48.6h-34.6
						c-26.7,0-48.3-21.8-48.3-48.6l0,0C206.3,398.5,227.9,376.8,254.6,376.8z"/>
				</defs>
				<clipPath id="SVGID_2_">
					<use xlink:href="#SVGID_1_"  style="overflow:visible;"/>
				</clipPath>
				<path class="st12" d="M192.5,456.1c65.8-128.6,52.7,172.7,22.2,21.3c-11.5-57,88-95,125.2-85c33,8.8-19.1,54.3-43.7,86.2
					c-3.2,4.1-9.9,1.8-9.8-4c-8.1-54,68.4-68.7,107.1-60.7"/>
			</g>
			<g>
				<path id="XMLID_2_" class="st1" d="M254.6,376.8h34.6c26.7,0,48.3,21.8,48.3,48.6l0,0c0,26.8-21.6,48.6-48.3,48.6h-34.6
					c-26.7,0-48.3-21.8-48.3-48.6l0,0C206.3,398.5,227.9,376.8,254.6,376.8z"/>
			</g>
		</g>
	</g>
	<g>
		<polyline class="st1" points="836.5,377.7 920.1,377.7 920.1,416.2 836.5,416.2 		"/>
		<polyline class="st1" points="942.6,455.5 879.2,455.5 879.2,417.1 962.8,417.1 962.8,440 		"/>
		<rect x="81.9" y="714.8" class="st1" width="83.6" height="38.4"/>
		<polyline class="st1" points="73.6,754.1 39.2,754.1 39.2,792.6 		"/>
		<line class="st1" x1="122.8" y1="792.6" x2="122.8" y2="773.4"/>
		<rect x="86.1" y="450.4" class="st1" width="83.6" height="38.4"/>
	</g>
	<path class="st10" d="M527.4,535.6c0,0,44.9,45,66.5,76.1"/>
	<path class="st3" d="M746,518.9c-8.1-19.1-16.4-33.2-24.6-43.4c-8.7,5.4-15.7,13.3-17.9,21.9c-6.3,24.1,28.5,36.8,41.7,87.7
		c2.6,10,8.5,33.5,2.4,61.2c-3.2,14.8-10.4,34-15.3,47.1c-6.8,18.3,2.6,39,21.1,44.9c0.5,0.2,1,0.3,1.4,0.4
		c4.5,1.3,9.1,2.5,13.7,3.7c-1.4-8.9-2.4-18.7-2.6-29.3C764.5,648.2,763,558.9,746,518.9z"/>
	<path class="st13" d="M520.1,604.3c6.9,1.7,14.5,3.8,18.5,9.7c2.6,3.8,3.2,8.5,3.8,13.1c1.1,8.3,2.3,16.8,5.9,24.3"/>
	<path class="st13" d="M527.7,624.8c4.2,4.7,5.8,11.2,6.5,17.4s0.8,12.7,2.6,18.7"/>
	<path class="st13" d="M577.2,681c1.9,3.9,6.1,6,10.2,7.3s8.5,1.8,12.3,3.7c7.4,3.8,11.4,11.8,15.5,19.1c4.3,7.5,9.4,14.6,15,21.2"
		/>
	<path class="st13" d="M609.9,722.3c6,11.9,15.1,22.2,26,29.8"/>
	<path class="st13" d="M530.6,794.9c13.1,23.5,39.5,38.8,66.3,38.3"/>
	<path class="st13" d="M573.3,814.3c10.5,6,22.9,8.5,34.8,7"/>
	<path class="st13" d="M352,658.6c-2.6,11.4-5.2,22.8-7.9,34.2"/>
	<line class="st13" x1="367.5" y1="645.7" x2="360.4" y2="670.8"/>
	<path class="st1" d="M731.8,670.8c-8.1,15.8-12,33.7-11.3,51.4c0.2,4.6,0.7,9.4,3,13.4s6.8,7,11.4,6.3c0.9-0.2,1.9-0.5,2.6-1.1
		c1.8-1.6,1.5-4.9-0.4-6.5s-4.7-1.7-6.9-0.8c-2.7,5.4,0.7,12.3,5.9,15.5c5.1,3.2,11.4,3.6,17.4,4"/>
	<path class="st3" d="M420.7,465.4c-3.2-2.2-5.4-5.8-5.9-9.7c-0.8-6.5,4.8-13.8,11.3-12.6c6.3,1.2,9.1,8.7,9.5,15.1
		c0.2,2.4,0,5.1-1.6,6.9c-3,3.2-8.3,0.9-12.6,1.8"/>
	<path class="st1" d="M381.7,693.8c1,11.9-5,24.2-14.9,30.7"/>
	<path class="st1" d="M368.9,702.3c0.7,3.2-0.3,6.7-2.6,9"/>
	<path class="st13" d="M262,329c-1,18,0.5,35.3,3.1,49.1"/>
	<path class="st13" d="M208.8,216.9c0.2,20.5,3.3,40.8,6.5,61c1.8,11.4,3.6,22.9,7.1,33.9c3.1,9.8,7.5,19,11.9,28.3
		c5.6,11.7,11.2,23.5,19.5,33.4"/>
	<path class="st13" d="M313.3,204.3c-3,58-13.7,115.6-31.8,170.7"/>
	<path class="st13" d="M352,256.5c-2.4,44.5-21.3,88-52.1,120"/>
	<path class="st13" d="M192.8,239.6c3.3,1.1,6,3.7,7.4,7c1.2,2.8,1.5,6.3,3.9,8.2c1.5,1.1,3.6,1.3,5.4,1.8c1.8,0.5,3.8,1.9,3.8,3.8
		c5.3-3.5,11.2-7.9,11.7-14.3c0.2-1.9-0.1-4.1,1.1-5.6c1.1-1.3,2.9-1.6,4.5-2s3.4-1.4,3.6-3.1"/>
	<path class="st13" d="M187.9,274.3c4.8,1.7,8.9,5.3,11.2,9.8c0.4,0.7,0.7,1.5,1.3,2.1c2.5,2.7,7.3,0.7,10.5,2.5
		c2.8,1.6,4,5.7,7.1,6c2.2-4,8-5.4,9.1-9.8c0.2-0.7,0.2-1.5,0.6-2.1c1.4-2.5,5.3-0.9,7.9-1.8c3.6-1.3,4.1-7,7.8-8.1"/>
	<path class="st13" d="M249.7,299.1c-4,3.1-6.6,7.8-7.1,12.9c-0.1,1-0.1,2.1-0.7,2.9c-0.8,1.2-2.4,1.5-3.8,2
		c-4.6,1.4-8.9,5.2-10.2,9.8c-0.3-1.3-1.7-2.1-3-2.3c-1.3-0.2-2.6,0.1-4,0.1c-2.4,0.1-4.8-0.6-6.9-2c-1.7-1.1-3.4-2.7-5.3-2.1
		c-0.7,0.2-1.3,0.7-1.9,1.1c-2,1.2-4.5,1.3-6.8,0.6c-2.2-0.7-4.1-2.2-5.8-3.8"/>
	<path class="st13" d="M258.2,331.3c-1.4,5.7-3.4,12-8.6,14.6c-1.1,0.6-2.4,0.9-3.4,1.6c-2,1.2-5.8,4.8-5.9,7.2
		c-2.1,0.2-3.8-1.5-5.7-2.3c-3.2-1.3-6.1,1.3-9.6,1.5c-3.5,0.3-7.7-1.8-11.1-2.7"/>
	<path class="st13" d="M236.2,367.8c2.5,1.3,5.4,2.3,8.2,1.9c1.2-0.2,2.3-0.6,3.5-0.5c2,0.2,3.6,1.8,4.9,3.4c0.2-2.2,0.4-4.7,2.2-6
		c0.9-0.7,2.2-1,3.1-1.7c1-0.7,1.6-2.2,0.7-3.1"/>
	<path class="st13" d="M300.9,208.7c2.4,1.8,3.9,4.8,3.9,7.8c0,0.7-0.1,1.5,0.2,2.2c0.8,2.1,4.1,2.1,5.1,4.1c0.6,1.3,0.2,3.1,1.3,4
		c0.6-1.3,1.2-2.6,2.5-3.2c1.4-0.7,3-0.1,4.6-0.4c2-0.3,3.6-2.1,3.7-4.1"/>
	<path class="st13" d="M286.2,246.2c0.8,2.8,3.4,5,6.3,5.2c1.6,0.1,3.3-0.4,4.8,0.2c1.7,0.7,2.7,2.5,3.2,4.4
		c0.5,1.9,0.7,3.7,1.5,5.4s3.6,5.1,5.5,4.7c1.4-0.3,1.4-3.6,2.8-4c2-0.6,4.4,0.9,6.2-0.2c1.1-0.7,1.5-2.1,2.4-2.8
		c1.8-1.4,5.3-0.8,5.9-3"/>
	<path class="st13" d="M272,291.4c3.9,0.1,7.7,2.5,9.5,6c1.6,3,1.9,7.1,4.9,8.8c1.3,0.8,3,0.9,4.5,1.3c3.5,1,6.3,3.9,7.1,7.4
		c1.5-2.8,5.2-3.2,8.4-3.2s6.7,0.1,8.8-2.3c0.6-0.7,6.5-8.6,11.8-9.3"/>
	<path class="st13" d="M264.8,329.3c1.6,0.1,2.7,1.6,3.3,3.1s1.1,3.1,2.5,4c1.9,1.2,4.4,0.4,6.6,0.8c5.5,1.1,6.4,9.2,11.2,12.2"/>
	<path class="st13" d="M333.3,296.9c0.8,1.9,1.2,4,1.2,6.1s-0.2,4.4,1.1,6c0.8,1,2.1,1.5,2.7,2.6c0.2,0.3,0.3,0.7,0.5,1
		c0.5,0.6,1.4,0.5,2.2,0.4c1.9-0.3,3.9-0.3,5.8-0.3c1.5,0.1,3.1,0.2,4.5-0.2s2.9-1.6,3-3.1"/>
	<path class="st13" d="M314.9,324.2c2.9,0.5,5.5,2.5,6.7,5.2c0.8,1.8,1.1,4,2.4,5.5c2.1,2.3,5.7,1.9,8.8,2.5c2.8,0.5,5.4,2,8.3,2.2
		c3.2,0.2,6.5-1.3,8.4-3.9"/>
	<path class="st13" d="M295,356.7c4.5-0.4,9,2.2,11.1,6.2c0.4,0.8,0.7,1.6,1.4,2.3c1.9,1.9,5.1,0.5,7.7,0.9c1.7,0.3,3.1,1.3,4.7,2
		c4.3,1.9,9.7,0.8,13-2.6"/>
	<path class="st13" d="M327,300c-19.3,19.5-38.6,49.4-46.3,77.7"/>
	<line class="st1" x1="471.4" y1="265.1" x2="481.2" y2="296.6"/>
	<line class="st1" x1="559" y1="247.1" x2="551" y2="300.2"/>
	<line class="st1" x1="585.8" y1="279.5" x2="578.7" y2="303.8"/>
	<line class="st1" x1="663.6" y1="227.3" x2="624.3" y2="305.6"/>
	<line class="st1" x1="694.9" y1="293" x2="651.1" y2="337.1"/>
	<line class="st1" x1="686.9" y1="351.5" x2="719.9" y2="335.3"/>
	<line class="st13" x1="630.2" y1="833.6" x2="741.6" y2="833.2"/>
	<polyline class="st1" points="363.9,172.3 798.2,172.3 798.2,716.6 	"/>
	<line class="st1" x1="241.3" y1="515.5" x2="241.3" y2="794.9"/>
	<ellipse class="st3" cx="267.9" cy="45.5" rx="8.7" ry="8.8"/>
	<path class="st14" d="M311.3,588.3l12.5-55.8c1.3,2.7,3.7,5.8,7.9,10.2l1.4,1.4c5.8,5.7,15.5,15.4,9.2,25c-0.5,0.7-0.3,1.7,0.4,2.1
		c0.3,0.2,0.6,0.3,0.8,0.3c0.5,0,1-0.2,1.3-0.7c7.7-11.7-3.6-22.9-9.6-28.9l-1.4-1.4c-7.7-7.9-8.5-11.2-8.7-14.5l3.3-14.6
		c1.3,2.7,3.7,5.8,8,10.2l1.5,1.5c5.8,5.7,15.5,15.4,9.2,25c-0.5,0.7-0.3,1.7,0.4,2.1c0.3,0.2,0.6,0.3,0.8,0.3c0.5,0,1-0.2,1.3-0.7
		c7.7-11.7-3.6-22.9-9.6-28.8l-1.4-1.4c-7.8-8-8.5-11.2-8.7-14.6c0-0.8-0.6-1.4-1.6-1.5c-0.8,0-1.5,0.7-1.5,1.6
		c-0.1,0.1-0.1,0.2-0.2,0.4L309.2,584c-3.5-4.1-10.1-6.1-17.1-4.7c-9.3,1.9-15.8,9.1-14.4,16.1c1.4,7.1,10.1,11.3,19.4,9.4
		c9.3-1.8,15.8-9.1,14.4-16.1C311.4,588.6,311.4,588.5,311.3,588.3z"/>
	<path class="st1" d="M220.7,389.8l46.8-344.7l55.8,346.6"/>
</g>
</svg>
